<svg width="23" height="23" viewBox="0 0 23 23" fill="none" xmlns="http://www.w3.org/2000/svg">
<path d="M15.7888 14.6916C17.0708 13.138 17.8805 11.1454 17.8805 8.95007C17.8805 4.01909 13.8658 0 8.94023 0C4.01467 0 0 4.01909 0 8.95007C0 13.8811 4.01467 17.9001 8.94023 17.9001C11.0994 17.9001 13.1236 17.1233 14.6755 15.8062L21.6252 22.7636C21.7939 22.9325 21.9963 23 22.1988 23C22.4012 23 22.6036 22.9325 22.7723 22.7636C23.0759 22.4596 23.0759 21.9192 22.7723 21.6153L15.7888 14.6916ZM8.90649 16.279C4.85809 16.279 1.58563 13.0029 1.58563 8.95007C1.58563 4.89721 4.85809 1.62115 8.90649 1.62115C12.9549 1.62115 16.2274 4.89721 16.2274 8.95007C16.2274 13.0029 12.9549 16.279 8.90649 16.279Z" fill="#153B1A"/>
</svg>
